<svg xmlns="http://www.w3.org/2000/svg" viewBox="0 0 155.89 39.59" xmlns:v="https://vecta.io/nano"><path d="M0 23.94h111.64v2.33H0v-2.33h0z" fill="#e30613"/><g fill="#1d1d1b"><path d="M95.7 8.45h15.94v2.98h-7.95v1.85h7.95v2.85h-7.95v2.48h7.95v2.97H95.7V8.45h0zm-18.23 0h15.94v10.29c-.06 2.28-3.22 3.66-9.59 3.62-3.22 0-9.84.25-9.78-3.49l.1-3.21h7.91v1.82a1.51 1.51 0 0 0 1.36 1.32 1.4 1.4 0 0 0 1.28-1.19l-.06-6.22h-7.16V8.45zm-18.09 0h15.51v2.94h-3.81v10.19h-7.89V11.39h-3.81V8.45h0zM41.77 4.94h7.21v1.97h-7.21V4.94h0zm8.76 0h7.2v1.97h-7.2V4.94h0z"/><path d="M48.17 12.48v5.29c0 .77.64 1.42 1.83 1.42a1.57 1.57 0 0 0 1.63-1.4v-5.3a1.63 1.63 0 0 0-1.71-1.29 1.61 1.61 0 0 0-1.76 1.28zm-7.83 2.65c0-4 .93-7.23 9.5-7.25 8.76 0 9.49 3.25 9.5 7.25 0 4.28-.43 7.25-9.5 7.26-8.64 0-9.5-3.12-9.5-7.26zm-12.03-4.15v2.51h1.88a1.47 1.47 0 0 0 1.22-1.24 1.25 1.25 0 0 0-1.09-1.27zm-7.24-2.53h14.51c2.34 0 3.6 2.31 3.59 3.85a3.74 3.74 0 0 1-2.76 3.74l2.61 5.55h-8l-2.68-5.27v5.27h-7.25V8.45zM7.82 10.99v2.48h1.72a1.34 1.34 0 0 0 1.27-1.19 1.19 1.19 0 0 0-1.06-1.31zm0 5.49v2.49h1.72a1.33 1.33 0 0 0 1.27-1.19 1.18 1.18 0 0 0-1.06-1.3zM0 8.48h15.57a3.31 3.31 0 0 1 3.5 3A4 4 0 0 1 16.96 15a3.45 3.45 0 0 1 2 3.31 3.58 3.58 0 0 1-3.55 3.28H0V8.45z" fill-rule="evenodd"/><path d="M105.14 32.86v1.69h4.5c0 1.81-.25 1.62-3.86 1.62s-3.85.19-3.85-1.62v-3.19c0-1.19.32-1.1 3.85-1.1 2.81 0 3.76-.15 3.86 1.09h2v-.36a2.44 2.44 0 0 0-2.64-2.42h-7.09a1.8 1.8 0 0 0-2 1.69c0 .15-.19 2.33-.17 2.79a34 34 0 0 0 .17 3.48 2 2 0 0 0 2.19 1.33h3.68c2.8 0 4.18.08 4.65-.15 1-.48 1.23-1.13 1.23-2.68v-2.17zm-93.53-4.24H9.59v3.69H2.02v-3.69H0v9.29h2.02V34h7.57v3.91h2.02v-9.29h0zm8.96 1.69h6.93v-1.69h-8.95v9.29h8.95v-1.69h-6.93V34h6.57v-1.69h-6.57v-2h0zm16.78-1.69h-2.02v9.29h2.02v-9.29h0zm17.78 0h-10.4v1.69h6.92v.05l-6.92 6.06v1.49h10.4v-1.69h-6.98v-.04l6.98-6.23v-1.33h0zm16.73.01v6.32c0 1.56-.59 1.27-3.71 1.27s-3.74.31-3.74-1.22v-6.37h-2V35c0 1.53.55 3.14 3.37 3.14h4.83c2.59 0 3.25-1.61 3.25-3.2v-6.31zm21.11-.01h-2.02v7.6l-7.52-7.6h-2.59v9.29h2.02v-7.05l6.96 7.05h3.15v-9.29h0zM136.1 0a19.8 19.8 0 1 0 19.79 19.8c0-10.931-8.859-19.794-19.79-19.8zm3.47 36.38c-7.826 0-14.17-6.344-14.17-14.17s6.344-14.17 14.17-14.17 14.17 6.344 14.17 14.17a14.16 14.16 0 0 1-14.17 14.17z"/></g><path d="M153.74 22.21a14.17 14.17 0 0 1-24.19 10.02 14.17 14.17 0 0 1 10.02-24.19 14.16 14.16 0 0 1 14.17 14.17z" fill="#e30613"/></svg>